<mxfile host="drawio-plugin" modified="2023-07-11T13:35:22.691Z" agent="5.0 (Windows NT 6.2; Win64; x64) AppleWebKit/537.36 (KHTML, like Gecko) Chrome/87.0.4280.141 Safari/537.36" etag="M0H6XfarIw3zDU685oJc" version="13.7.9" type="embed"><diagram id="lMCECdiOliHJ0kIxP1SO" name="Page-1"><mxGraphModel dx="995" dy="-15985" grid="0" gridSize="10" guides="1" tooltips="1" connect="1" arrows="1" fold="1" page="0" pageScale="1" pageWidth="850" pageHeight="1100" background="#ffffff" math="0" shadow="0"><root><mxCell id="0"/><mxCell id="1" parent="0"/><mxCell id="104" value="" style="shape=actor;whiteSpace=wrap;html=1;fillColor=#d0cee2;fontSize=14;strokeColor=#56517e;sketch=1;" parent="1" vertex="1"><mxGeometry x="207" y="17746" width="62" height="76" as="geometry"/></mxCell><mxCell id="95" value="" style="html=1;aspect=fixed;strokeColor=none;shadow=0;align=center;verticalAlign=top;fillColor=#3B8DF1;shape=mxgraph.gcp2.maps_api;fontSize=14;fontColor=#000000;" parent="1" vertex="1"><mxGeometry x="231" y="17480" width="21.96" height="36" as="geometry"/></mxCell><mxCell id="85" value="&lt;font style=&quot;font-size: 14px&quot;&gt;Barber&lt;/font&gt;" style="ellipse;whiteSpace=wrap;html=1;aspect=fixed;sketch=1;fontColor=#000000;fontStyle=1;fillColor=none;strokeColor=none;" parent="1" vertex="1"><mxGeometry x="219" y="17497" width="49" height="49" as="geometry"/></mxCell><mxCell id="93" value="" style="html=1;aspect=fixed;strokeColor=none;shadow=0;align=center;verticalAlign=top;fillColor=#3B8DF1;shape=mxgraph.gcp2.maps_api;fontSize=14;fontColor=#000000;" parent="1" vertex="1"><mxGeometry x="231" y="17585" width="21.96" height="36" as="geometry"/></mxCell><mxCell id="38" style="edgeStyle=none;rounded=0;sketch=1;orthogonalLoop=1;jettySize=auto;html=1;entryX=1;entryY=0;entryDx=0;entryDy=0;strokeColor=#000000;fontColor=#000000;endArrow=none;endFill=0;" parent="1" source="40" target="41" edge="1"><mxGeometry relative="1" as="geometry"/></mxCell><mxCell id="39" style="edgeStyle=none;rounded=0;sketch=1;orthogonalLoop=1;jettySize=auto;html=1;entryX=0.5;entryY=0;entryDx=0;entryDy=0;strokeColor=#000000;fontColor=#000000;endArrow=none;endFill=0;" parent="1" source="40" target="42" edge="1"><mxGeometry relative="1" as="geometry"/></mxCell><mxCell id="40" value="&lt;font style=&quot;font-size: 17px&quot;&gt;82&lt;/font&gt;" style="ellipse;whiteSpace=wrap;html=1;aspect=fixed;fillColor=#dae8fc;strokeColor=#6c8ebf;sketch=1;fontColor=#000000;fontStyle=1" parent="1" vertex="1"><mxGeometry x="231" y="16567" width="47" height="47" as="geometry"/></mxCell><mxCell id="41" value="&lt;font style=&quot;font-size: 17px&quot;&gt;44&lt;/font&gt;" style="ellipse;whiteSpace=wrap;html=1;aspect=fixed;fillColor=#dae8fc;strokeColor=#6c8ebf;sketch=1;fontColor=#000000;fontStyle=1" parent="1" vertex="1"><mxGeometry x="92" y="16681" width="47" height="47" as="geometry"/></mxCell><mxCell id="42" value="&lt;font style=&quot;font-size: 17px&quot;&gt;76&lt;/font&gt;" style="ellipse;whiteSpace=wrap;html=1;aspect=fixed;fillColor=#dae8fc;strokeColor=#6c8ebf;sketch=1;fontColor=#000000;fontStyle=1" parent="1" vertex="1"><mxGeometry x="231" y="16679" width="47" height="47" as="geometry"/></mxCell><mxCell id="47" style="edgeStyle=orthogonalEdgeStyle;rounded=0;orthogonalLoop=1;jettySize=auto;html=1;entryX=0.5;entryY=0;entryDx=0;entryDy=0;endArrow=classic;endFill=1;fontSize=14;fontColor=#000000;curved=1;sketch=1;strokeColor=#992B41;" parent="1" source="43" target="41" edge="1"><mxGeometry relative="1" as="geometry"><mxPoint x="139" y="16599" as="sourcePoint"/></mxGeometry></mxCell><mxCell id="48" style="edgeStyle=orthogonalEdgeStyle;curved=1;rounded=0;orthogonalLoop=1;jettySize=auto;html=1;entryX=0;entryY=0;entryDx=0;entryDy=0;endArrow=classic;endFill=1;fontSize=14;fontColor=#000000;sketch=1;strokeColor=#992B41;" parent="1" source="43" target="40" edge="1"><mxGeometry relative="1" as="geometry"/></mxCell><mxCell id="43" value="&lt;b&gt;Vertex or Node&lt;/b&gt;" style="text;html=1;strokeColor=none;fillColor=none;align=center;verticalAlign=middle;whiteSpace=wrap;rounded=0;fontColor=#000000;fontSize=14;" parent="1" vertex="1"><mxGeometry x="92" y="16519" width="59" height="59" as="geometry"/></mxCell><mxCell id="44" value="&lt;b&gt;Edge or Connection&lt;/b&gt;" style="text;html=1;strokeColor=none;fillColor=none;align=center;verticalAlign=middle;whiteSpace=wrap;rounded=0;fontColor=#000000;fontSize=14;" parent="1" vertex="1"><mxGeometry x="296" y="16628" width="86" height="42" as="geometry"/></mxCell><mxCell id="45" style="edgeStyle=none;rounded=0;sketch=1;orthogonalLoop=1;jettySize=auto;html=1;entryX=0;entryY=0.5;entryDx=0;entryDy=0;strokeColor=#000000;fontColor=#000000;endArrow=none;endFill=0;exitX=1;exitY=0.5;exitDx=0;exitDy=0;" parent="1" source="41" target="42" edge="1"><mxGeometry relative="1" as="geometry"><mxPoint x="204.97883196168084" y="16626.413029726085" as="sourcePoint"/><mxPoint x="247.8829906421172" y="16695.882990642116" as="targetPoint"/></mxGeometry></mxCell><mxCell id="50" style="edgeStyle=orthogonalEdgeStyle;curved=1;rounded=0;orthogonalLoop=1;jettySize=auto;html=1;endArrow=classic;endFill=1;fontSize=14;fontColor=#000000;sketch=1;strokeColor=#992B41;exitX=0;exitY=0.5;exitDx=0;exitDy=0;" parent="1" source="44" edge="1"><mxGeometry relative="1" as="geometry"><mxPoint x="161" y="16558.470588235294" as="sourcePoint"/><mxPoint x="258" y="16650" as="targetPoint"/></mxGeometry></mxCell><mxCell id="51" style="edgeStyle=none;rounded=0;sketch=1;orthogonalLoop=1;jettySize=auto;html=1;entryX=1;entryY=0;entryDx=0;entryDy=0;strokeColor=#000000;fontColor=#000000;endArrow=none;endFill=0;" parent="1" source="53" target="54" edge="1"><mxGeometry relative="1" as="geometry"/></mxCell><mxCell id="52" style="edgeStyle=none;rounded=0;sketch=1;orthogonalLoop=1;jettySize=auto;html=1;entryX=0.5;entryY=0;entryDx=0;entryDy=0;strokeColor=#000000;fontColor=#000000;endArrow=none;endFill=0;" parent="1" source="53" target="55" edge="1"><mxGeometry relative="1" as="geometry"/></mxCell><mxCell id="53" value="&lt;font style=&quot;font-size: 17px&quot;&gt;82&lt;/font&gt;" style="ellipse;whiteSpace=wrap;html=1;aspect=fixed;fillColor=#dae8fc;strokeColor=#6c8ebf;sketch=1;fontColor=#000000;fontStyle=1" parent="1" vertex="1"><mxGeometry x="224" y="16826" width="47" height="47" as="geometry"/></mxCell><mxCell id="54" value="&lt;font style=&quot;font-size: 17px&quot;&gt;44&lt;/font&gt;" style="ellipse;whiteSpace=wrap;html=1;aspect=fixed;fillColor=#dae8fc;strokeColor=#6c8ebf;sketch=1;fontColor=#000000;fontStyle=1" parent="1" vertex="1"><mxGeometry x="85" y="16940" width="47" height="47" as="geometry"/></mxCell><mxCell id="55" value="&lt;font style=&quot;font-size: 17px&quot;&gt;76&lt;/font&gt;" style="ellipse;whiteSpace=wrap;html=1;aspect=fixed;fillColor=#dae8fc;strokeColor=#6c8ebf;sketch=1;fontColor=#000000;fontStyle=1" parent="1" vertex="1"><mxGeometry x="224" y="16938" width="47" height="47" as="geometry"/></mxCell><mxCell id="60" style="edgeStyle=none;rounded=0;sketch=1;orthogonalLoop=1;jettySize=auto;html=1;entryX=0;entryY=0.5;entryDx=0;entryDy=0;strokeColor=#000000;fontColor=#000000;endArrow=none;endFill=0;exitX=1;exitY=0.5;exitDx=0;exitDy=0;" parent="1" source="54" target="55" edge="1"><mxGeometry relative="1" as="geometry"><mxPoint x="197.97883196168084" y="16885.413029726085" as="sourcePoint"/><mxPoint x="240.8829906421172" y="16954.882990642116" as="targetPoint"/></mxGeometry></mxCell><mxCell id="63" style="edgeStyle=none;rounded=0;sketch=1;orthogonalLoop=1;jettySize=auto;html=1;entryX=1;entryY=0;entryDx=0;entryDy=0;strokeColor=#000000;fontColor=#000000;endArrow=none;endFill=0;" parent="1" source="65" target="66" edge="1"><mxGeometry relative="1" as="geometry"/></mxCell><mxCell id="64" style="edgeStyle=none;rounded=0;sketch=1;orthogonalLoop=1;jettySize=auto;html=1;entryX=0.5;entryY=0;entryDx=0;entryDy=0;strokeColor=#000000;fontColor=#000000;endArrow=none;endFill=0;" parent="1" source="65" target="67" edge="1"><mxGeometry relative="1" as="geometry"/></mxCell><mxCell id="65" value="&lt;font style=&quot;font-size: 17px&quot;&gt;82&lt;/font&gt;" style="ellipse;whiteSpace=wrap;html=1;aspect=fixed;fillColor=#dae8fc;strokeColor=#6c8ebf;sketch=1;fontColor=#000000;fontStyle=1" parent="1" vertex="1"><mxGeometry x="224" y="17050" width="47" height="47" as="geometry"/></mxCell><mxCell id="66" value="&lt;font style=&quot;font-size: 17px&quot;&gt;44&lt;/font&gt;" style="ellipse;whiteSpace=wrap;html=1;aspect=fixed;fillColor=#dae8fc;strokeColor=#6c8ebf;sketch=1;fontColor=#000000;fontStyle=1" parent="1" vertex="1"><mxGeometry x="85" y="17164" width="47" height="47" as="geometry"/></mxCell><mxCell id="67" value="&lt;font style=&quot;font-size: 17px&quot;&gt;76&lt;/font&gt;" style="ellipse;whiteSpace=wrap;html=1;aspect=fixed;fillColor=#dae8fc;strokeColor=#6c8ebf;sketch=1;fontColor=#000000;fontStyle=1" parent="1" vertex="1"><mxGeometry x="224" y="17162" width="47" height="47" as="geometry"/></mxCell><mxCell id="68" style="edgeStyle=none;rounded=0;sketch=1;orthogonalLoop=1;jettySize=auto;html=1;entryX=0;entryY=0.5;entryDx=0;entryDy=0;strokeColor=#000000;fontColor=#000000;endArrow=none;endFill=0;exitX=1;exitY=0.5;exitDx=0;exitDy=0;" parent="1" source="66" target="67" edge="1"><mxGeometry relative="1" as="geometry"><mxPoint x="197.97883196168084" y="17109.413029726085" as="sourcePoint"/><mxPoint x="240.8829906421172" y="17178.882990642116" as="targetPoint"/></mxGeometry></mxCell><mxCell id="69" style="edgeStyle=orthogonalEdgeStyle;curved=1;rounded=0;orthogonalLoop=1;jettySize=auto;html=1;endArrow=classic;endFill=1;fontSize=14;fontColor=#000000;sketch=1;strokeColor=#992B41;" parent="1" edge="1"><mxGeometry relative="1" as="geometry"><mxPoint x="264" y="17154" as="sourcePoint"/><mxPoint x="264" y="17116" as="targetPoint"/><Array as="points"><mxPoint x="264" y="17147"/><mxPoint x="264" y="17147"/></Array></mxGeometry></mxCell><mxCell id="70" value="" style="endArrow=classic;html=1;strokeColor=#992B41;fontSize=14;fontColor=#000000;sketch=1;" parent="1" edge="1"><mxGeometry width="50" height="50" relative="1" as="geometry"><mxPoint x="139" y="16923" as="sourcePoint"/><mxPoint x="194" y="16878" as="targetPoint"/></mxGeometry></mxCell><mxCell id="71" value="" style="endArrow=classic;html=1;strokeColor=#992B41;fontSize=14;fontColor=#000000;sketch=1;" parent="1" edge="1"><mxGeometry width="50" height="50" relative="1" as="geometry"><mxPoint x="199" y="16977" as="sourcePoint"/><mxPoint x="143" y="16977" as="targetPoint"/></mxGeometry></mxCell><mxCell id="73" style="edgeStyle=none;rounded=0;sketch=1;orthogonalLoop=1;jettySize=auto;html=1;entryX=1;entryY=0;entryDx=0;entryDy=0;strokeColor=#000000;fontColor=#000000;endArrow=none;endFill=0;" parent="1" source="75" target="76" edge="1"><mxGeometry relative="1" as="geometry"/></mxCell><mxCell id="74" style="edgeStyle=none;rounded=0;sketch=1;orthogonalLoop=1;jettySize=auto;html=1;entryX=0.5;entryY=0;entryDx=0;entryDy=0;strokeColor=#000000;fontColor=#000000;endArrow=none;endFill=0;" parent="1" source="75" target="77" edge="1"><mxGeometry relative="1" as="geometry"/></mxCell><mxCell id="75" value="&lt;font style=&quot;font-size: 17px&quot;&gt;82&lt;/font&gt;" style="ellipse;whiteSpace=wrap;html=1;aspect=fixed;fillColor=#dae8fc;strokeColor=#6c8ebf;sketch=1;fontColor=#000000;fontStyle=1" parent="1" vertex="1"><mxGeometry x="224" y="17269" width="47" height="47" as="geometry"/></mxCell><mxCell id="76" value="&lt;font style=&quot;font-size: 17px&quot;&gt;44&lt;/font&gt;" style="ellipse;whiteSpace=wrap;html=1;aspect=fixed;fillColor=#dae8fc;strokeColor=#6c8ebf;sketch=1;fontColor=#000000;fontStyle=1" parent="1" vertex="1"><mxGeometry x="85" y="17383" width="47" height="47" as="geometry"/></mxCell><mxCell id="77" value="&lt;font style=&quot;font-size: 17px&quot;&gt;76&lt;/font&gt;" style="ellipse;whiteSpace=wrap;html=1;aspect=fixed;fillColor=#dae8fc;strokeColor=#6c8ebf;sketch=1;fontColor=#000000;fontStyle=1" parent="1" vertex="1"><mxGeometry x="224" y="17381" width="47" height="47" as="geometry"/></mxCell><mxCell id="78" style="edgeStyle=none;rounded=0;sketch=1;orthogonalLoop=1;jettySize=auto;html=1;entryX=0;entryY=0.5;entryDx=0;entryDy=0;strokeColor=#000000;fontColor=#000000;endArrow=none;endFill=0;exitX=1;exitY=0.5;exitDx=0;exitDy=0;" parent="1" source="76" target="77" edge="1"><mxGeometry relative="1" as="geometry"><mxPoint x="197.97883196168084" y="17328.413029726085" as="sourcePoint"/><mxPoint x="240.8829906421172" y="17397.882990642116" as="targetPoint"/></mxGeometry></mxCell><mxCell id="80" value="15" style="text;html=1;align=center;verticalAlign=middle;resizable=0;points=[];autosize=1;fontSize=14;fontColor=#000000;fontStyle=1" parent="1" vertex="1"><mxGeometry x="259" y="17338" width="26" height="21" as="geometry"/></mxCell><mxCell id="81" value="3" style="text;html=1;align=center;verticalAlign=middle;resizable=0;points=[];autosize=1;fontSize=14;fontColor=#000000;fontStyle=1" parent="1" vertex="1"><mxGeometry x="171" y="17412" width="18" height="21" as="geometry"/></mxCell><mxCell id="82" value="2" style="text;html=1;align=center;verticalAlign=middle;resizable=0;points=[];autosize=1;fontSize=14;fontColor=#000000;fontStyle=1" parent="1" vertex="1"><mxGeometry x="151" y="17325" width="18" height="21" as="geometry"/></mxCell><mxCell id="83" style="edgeStyle=none;rounded=0;sketch=1;orthogonalLoop=1;jettySize=auto;html=1;entryX=1;entryY=0;entryDx=0;entryDy=0;strokeColor=#000000;fontColor=#000000;endArrow=none;endFill=0;dashed=1;strokeWidth=3;" parent="1" source="85" target="86" edge="1"><mxGeometry relative="1" as="geometry"/></mxCell><mxCell id="84" style="edgeStyle=none;rounded=0;sketch=1;orthogonalLoop=1;jettySize=auto;html=1;strokeColor=#000000;fontColor=#000000;endArrow=none;endFill=0;strokeWidth=3;dashed=1;" parent="1" source="85" target="87" edge="1"><mxGeometry relative="1" as="geometry"/></mxCell><mxCell id="86" value="&lt;font style=&quot;font-size: 14px&quot;&gt;Mall&lt;/font&gt;" style="ellipse;whiteSpace=wrap;html=1;aspect=fixed;sketch=1;fontColor=#000000;fontStyle=1;fillColor=none;strokeColor=none;" parent="1" vertex="1"><mxGeometry x="80" y="17604" width="47" height="47" as="geometry"/></mxCell><mxCell id="87" value="&lt;font style=&quot;font-size: 14px&quot;&gt;Home&lt;/font&gt;" style="ellipse;whiteSpace=wrap;html=1;aspect=fixed;sketch=1;fontColor=#000000;fontStyle=1;fillColor=none;strokeColor=none;" parent="1" vertex="1"><mxGeometry x="219" y="17602" width="47" height="47" as="geometry"/></mxCell><mxCell id="88" style="edgeStyle=none;rounded=0;sketch=1;orthogonalLoop=1;jettySize=auto;html=1;entryX=0;entryY=0.5;entryDx=0;entryDy=0;strokeColor=#000000;fontColor=#000000;endArrow=none;endFill=0;exitX=1;exitY=0.5;exitDx=0;exitDy=0;dashed=1;strokeWidth=3;" parent="1" source="86" target="87" edge="1"><mxGeometry relative="1" as="geometry"><mxPoint x="192.97883196168084" y="17549.413029726085" as="sourcePoint"/><mxPoint x="235.8829906421172" y="17618.882990642116" as="targetPoint"/></mxGeometry></mxCell><mxCell id="89" value="25 min" style="text;html=1;align=center;verticalAlign=middle;resizable=0;points=[];autosize=1;fontSize=14;fontColor=#000000;fontStyle=1" parent="1" vertex="1"><mxGeometry x="252.96" y="17559" width="55" height="21" as="geometry"/></mxCell><mxCell id="90" value="3 min" style="text;html=1;align=center;verticalAlign=middle;resizable=0;points=[];autosize=1;fontSize=14;fontColor=#000000;fontStyle=1" parent="1" vertex="1"><mxGeometry x="152" y="17633" width="47" height="21" as="geometry"/></mxCell><mxCell id="91" value="2 min" style="text;html=1;align=center;verticalAlign=middle;resizable=0;points=[];autosize=1;fontSize=14;fontColor=#000000;fontStyle=1" parent="1" vertex="1"><mxGeometry x="132" y="17546" width="47" height="21" as="geometry"/></mxCell><mxCell id="96" value="" style="points=[];aspect=fixed;html=1;align=center;shadow=0;dashed=0;image;image=img/lib/allied_telesis/buildings/Long_Building.svg;fillColor=none;fontSize=14;fontColor=#000000;flipH=1;" parent="1" vertex="1"><mxGeometry x="58" y="17576" width="55.15" height="57" as="geometry"/></mxCell><mxCell id="98" value="&lt;font style=&quot;font-size: 17px&quot;&gt;You&lt;/font&gt;" style="ellipse;whiteSpace=wrap;html=1;aspect=fixed;sketch=1;fontColor=#000000;fontStyle=1;fillColor=none;strokeColor=none;" parent="1" vertex="1"><mxGeometry x="69" y="17774" width="47" height="47" as="geometry"/></mxCell><mxCell id="99" value="&lt;font style=&quot;font-size: 13px&quot;&gt;Celebrity&lt;/font&gt;" style="ellipse;whiteSpace=wrap;html=1;aspect=fixed;sketch=1;fontColor=#000000;fontStyle=1;strokeColor=none;fillColor=none;" parent="1" vertex="1"><mxGeometry x="208" y="17767.5" width="60" height="60" as="geometry"/></mxCell><mxCell id="100" style="edgeStyle=none;rounded=0;sketch=1;orthogonalLoop=1;jettySize=auto;html=1;entryX=0;entryY=0.5;entryDx=0;entryDy=0;strokeColor=#000000;fontColor=#000000;endArrow=classic;endFill=1;exitX=1;exitY=0.5;exitDx=0;exitDy=0;" parent="1" source="98" target="99" edge="1"><mxGeometry relative="1" as="geometry"><mxPoint x="181.97883196168084" y="17719.413029726085" as="sourcePoint"/><mxPoint x="224.8829906421172" y="17788.882990642116" as="targetPoint"/></mxGeometry></mxCell><mxCell id="103" value="" style="shape=actor;whiteSpace=wrap;html=1;fillColor=none;fontSize=14;fontColor=#000000;strokeColor=#000000;sketch=1;" parent="1" vertex="1"><mxGeometry x="64.5" y="17749.5" width="51.5" height="73" as="geometry"/></mxCell><mxCell id="105" style="edgeStyle=none;rounded=0;sketch=1;orthogonalLoop=1;jettySize=auto;html=1;entryX=0;entryY=0;entryDx=0;entryDy=0;strokeColor=#000000;fontColor=#000000;endArrow=none;endFill=0;" edge="1" source="115" target="108" parent="1"><mxGeometry relative="1" as="geometry"/></mxCell><mxCell id="106" style="edgeStyle=none;rounded=0;sketch=1;orthogonalLoop=1;jettySize=auto;html=1;entryX=1;entryY=0;entryDx=0;entryDy=0;strokeColor=#000000;fontColor=#000000;endArrow=none;endFill=0;" edge="1" source="113" target="109" parent="1"><mxGeometry relative="1" as="geometry"/></mxCell><mxCell id="107" value="&lt;font style=&quot;font-size: 17px&quot;&gt;A&lt;/font&gt;" style="ellipse;whiteSpace=wrap;html=1;aspect=fixed;fillColor=#dae8fc;strokeColor=#6c8ebf;sketch=1;fontColor=#000000;fontStyle=1" vertex="1" parent="1"><mxGeometry x="129" y="17938" width="47" height="47" as="geometry"/></mxCell><mxCell id="108" value="&lt;font style=&quot;font-size: 17px&quot;&gt;D&lt;/font&gt;" style="ellipse;whiteSpace=wrap;html=1;aspect=fixed;fillColor=#dae8fc;strokeColor=#6c8ebf;sketch=1;fontColor=#000000;fontStyle=1" vertex="1" parent="1"><mxGeometry x="77" y="18083" width="47" height="47" as="geometry"/></mxCell><mxCell id="109" value="&lt;font style=&quot;font-size: 17px&quot;&gt;C&lt;/font&gt;" style="ellipse;whiteSpace=wrap;html=1;aspect=fixed;fillColor=#dae8fc;strokeColor=#6c8ebf;sketch=1;fontColor=#000000;fontStyle=1" vertex="1" parent="1"><mxGeometry x="166" y="18083" width="47" height="47" as="geometry"/></mxCell><mxCell id="110" style="edgeStyle=none;rounded=0;sketch=1;orthogonalLoop=1;jettySize=auto;html=1;entryX=0;entryY=0.5;entryDx=0;entryDy=0;strokeColor=#000000;fontColor=#000000;endArrow=none;endFill=0;exitX=1;exitY=0.5;exitDx=0;exitDy=0;" edge="1" source="108" target="109" parent="1"><mxGeometry relative="1" as="geometry"><mxPoint x="179.97883196168084" y="18034.413029726085" as="sourcePoint"/><mxPoint x="222.8829906421172" y="18103.882990642116" as="targetPoint"/></mxGeometry></mxCell><mxCell id="113" value="&lt;font style=&quot;font-size: 17px&quot;&gt;B&lt;/font&gt;" style="ellipse;whiteSpace=wrap;html=1;aspect=fixed;fillColor=#dae8fc;strokeColor=#6c8ebf;sketch=1;fontColor=#000000;fontStyle=1" vertex="1" parent="1"><mxGeometry x="208" y="18006" width="47" height="47" as="geometry"/></mxCell><mxCell id="114" style="edgeStyle=none;rounded=0;sketch=1;orthogonalLoop=1;jettySize=auto;html=1;entryX=0;entryY=0;entryDx=0;entryDy=0;strokeColor=#000000;fontColor=#000000;endArrow=none;endFill=0;" edge="1" parent="1" source="107" target="113"><mxGeometry relative="1" as="geometry"><mxPoint x="143.2316058228929" y="17979.80928152274" as="sourcePoint"/><mxPoint x="229.5" y="18087" as="targetPoint"/></mxGeometry></mxCell><mxCell id="115" value="&lt;font style=&quot;font-size: 17px&quot;&gt;E&lt;/font&gt;" style="ellipse;whiteSpace=wrap;html=1;aspect=fixed;fillColor=#dae8fc;strokeColor=#6c8ebf;sketch=1;fontColor=#000000;fontStyle=1" vertex="1" parent="1"><mxGeometry x="33" y="18000" width="47" height="47" as="geometry"/></mxCell><mxCell id="116" style="edgeStyle=none;rounded=0;sketch=1;orthogonalLoop=1;jettySize=auto;html=1;entryX=1;entryY=0;entryDx=0;entryDy=0;strokeColor=#000000;fontColor=#000000;endArrow=none;endFill=0;" edge="1" parent="1" source="107" target="115"><mxGeometry relative="1" as="geometry"><mxPoint x="125.03818437741745" y="17984.743619180197" as="sourcePoint"/><mxPoint x="107.11700935788178" y="18095.88299064212" as="targetPoint"/></mxGeometry></mxCell><mxCell id="117" value="&lt;font style=&quot;font-size: 18px&quot; color=&quot;#000000&quot;&gt;Representing Graph as a&amp;nbsp;&lt;/font&gt;&lt;font color=&quot;#000000&quot;&gt;&lt;span style=&quot;font-size: 18px&quot;&gt;Adjacency Matrix&lt;br&gt;&lt;/span&gt;&lt;/font&gt;" style="text;html=1;align=center;verticalAlign=middle;resizable=0;points=[];autosize=1;" vertex="1" parent="1"><mxGeometry x="5" y="17864" width="350" height="20" as="geometry"/></mxCell><mxCell id="119" style="edgeStyle=none;rounded=0;sketch=1;orthogonalLoop=1;jettySize=auto;html=1;entryX=0;entryY=0;entryDx=0;entryDy=0;strokeColor=#000000;fontColor=#000000;endArrow=none;endFill=0;" edge="1" source="127" target="122" parent="1"><mxGeometry relative="1" as="geometry"/></mxCell><mxCell id="120" style="edgeStyle=none;rounded=0;sketch=1;orthogonalLoop=1;jettySize=auto;html=1;entryX=1;entryY=0;entryDx=0;entryDy=0;strokeColor=#000000;fontColor=#000000;endArrow=none;endFill=0;" edge="1" source="125" target="123" parent="1"><mxGeometry relative="1" as="geometry"/></mxCell><mxCell id="121" value="&lt;font style=&quot;font-size: 17px&quot;&gt;A&lt;/font&gt;" style="ellipse;whiteSpace=wrap;html=1;aspect=fixed;fillColor=#dae8fc;strokeColor=#6c8ebf;sketch=1;fontColor=#000000;fontStyle=1" vertex="1" parent="1"><mxGeometry x="129" y="18187" width="47" height="47" as="geometry"/></mxCell><mxCell id="122" value="&lt;font style=&quot;font-size: 17px&quot;&gt;D&lt;/font&gt;" style="ellipse;whiteSpace=wrap;html=1;aspect=fixed;fillColor=#dae8fc;strokeColor=#6c8ebf;sketch=1;fontColor=#000000;fontStyle=1" vertex="1" parent="1"><mxGeometry x="77" y="18332" width="47" height="47" as="geometry"/></mxCell><mxCell id="123" value="&lt;font style=&quot;font-size: 17px&quot;&gt;C&lt;/font&gt;" style="ellipse;whiteSpace=wrap;html=1;aspect=fixed;fillColor=#dae8fc;strokeColor=#6c8ebf;sketch=1;fontColor=#000000;fontStyle=1" vertex="1" parent="1"><mxGeometry x="166" y="18332" width="47" height="47" as="geometry"/></mxCell><mxCell id="124" style="edgeStyle=none;rounded=0;sketch=1;orthogonalLoop=1;jettySize=auto;html=1;entryX=0;entryY=0.5;entryDx=0;entryDy=0;strokeColor=#000000;fontColor=#000000;endArrow=none;endFill=0;exitX=1;exitY=0.5;exitDx=0;exitDy=0;" edge="1" source="122" target="123" parent="1"><mxGeometry relative="1" as="geometry"><mxPoint x="179.97883196168084" y="18283.413029726085" as="sourcePoint"/><mxPoint x="222.8829906421172" y="18352.882990642116" as="targetPoint"/></mxGeometry></mxCell><mxCell id="125" value="&lt;font style=&quot;font-size: 17px&quot;&gt;B&lt;/font&gt;" style="ellipse;whiteSpace=wrap;html=1;aspect=fixed;fillColor=#dae8fc;strokeColor=#6c8ebf;sketch=1;fontColor=#000000;fontStyle=1" vertex="1" parent="1"><mxGeometry x="208" y="18255" width="47" height="47" as="geometry"/></mxCell><mxCell id="126" style="edgeStyle=none;rounded=0;sketch=1;orthogonalLoop=1;jettySize=auto;html=1;entryX=0;entryY=0;entryDx=0;entryDy=0;strokeColor=#006EAF;fontColor=#000000;endArrow=classic;endFill=1;fillColor=#1ba1e2;" edge="1" source="121" target="125" parent="1"><mxGeometry relative="1" as="geometry"><mxPoint x="143.2316058228929" y="18228.80928152274" as="sourcePoint"/><mxPoint x="229.5" y="18336" as="targetPoint"/></mxGeometry></mxCell><mxCell id="127" value="&lt;font style=&quot;font-size: 17px&quot;&gt;E&lt;/font&gt;" style="ellipse;whiteSpace=wrap;html=1;aspect=fixed;fillColor=#dae8fc;strokeColor=#6c8ebf;sketch=1;fontColor=#000000;fontStyle=1" vertex="1" parent="1"><mxGeometry x="33" y="18249" width="47" height="47" as="geometry"/></mxCell><mxCell id="128" style="edgeStyle=none;rounded=0;sketch=1;orthogonalLoop=1;jettySize=auto;html=1;entryX=1;entryY=0;entryDx=0;entryDy=0;strokeColor=#000000;fontColor=#000000;endArrow=none;endFill=0;" edge="1" source="121" target="127" parent="1"><mxGeometry relative="1" as="geometry"><mxPoint x="125.03818437741745" y="18233.743619180197" as="sourcePoint"/><mxPoint x="107.11700935788178" y="18344.88299064212" as="targetPoint"/></mxGeometry></mxCell><mxCell id="129" style="edgeStyle=none;rounded=0;sketch=1;orthogonalLoop=1;jettySize=auto;html=1;entryX=0;entryY=0;entryDx=0;entryDy=0;strokeColor=#000000;fontColor=#000000;endArrow=none;endFill=0;" edge="1" source="137" target="132" parent="1"><mxGeometry relative="1" as="geometry"/></mxCell><mxCell id="130" style="edgeStyle=none;rounded=0;sketch=1;orthogonalLoop=1;jettySize=auto;html=1;entryX=1;entryY=0;entryDx=0;entryDy=0;strokeColor=#000000;fontColor=#000000;endArrow=none;endFill=0;" edge="1" source="135" target="133" parent="1"><mxGeometry relative="1" as="geometry"/></mxCell><mxCell id="131" value="&lt;font style=&quot;font-size: 17px&quot;&gt;A&lt;/font&gt;" style="ellipse;whiteSpace=wrap;html=1;aspect=fixed;fillColor=#dae8fc;strokeColor=#6c8ebf;sketch=1;fontColor=#000000;fontStyle=1" vertex="1" parent="1"><mxGeometry x="122" y="18461" width="47" height="47" as="geometry"/></mxCell><mxCell id="132" value="&lt;font style=&quot;font-size: 17px&quot;&gt;D&lt;/font&gt;" style="ellipse;whiteSpace=wrap;html=1;aspect=fixed;fillColor=#dae8fc;strokeColor=#6c8ebf;sketch=1;fontColor=#000000;fontStyle=1" vertex="1" parent="1"><mxGeometry x="70" y="18606" width="47" height="47" as="geometry"/></mxCell><mxCell id="133" value="&lt;font style=&quot;font-size: 17px&quot;&gt;C&lt;/font&gt;" style="ellipse;whiteSpace=wrap;html=1;aspect=fixed;fillColor=#dae8fc;strokeColor=#6c8ebf;sketch=1;fontColor=#000000;fontStyle=1" vertex="1" parent="1"><mxGeometry x="159" y="18606" width="47" height="47" as="geometry"/></mxCell><mxCell id="134" style="edgeStyle=none;rounded=0;sketch=1;orthogonalLoop=1;jettySize=auto;html=1;entryX=0;entryY=0.5;entryDx=0;entryDy=0;strokeColor=#000000;fontColor=#000000;endArrow=none;endFill=0;exitX=1;exitY=0.5;exitDx=0;exitDy=0;" edge="1" source="132" target="133" parent="1"><mxGeometry relative="1" as="geometry"><mxPoint x="172.97883196168084" y="18557.413029726085" as="sourcePoint"/><mxPoint x="215.8829906421172" y="18626.882990642116" as="targetPoint"/></mxGeometry></mxCell><mxCell id="135" value="&lt;font style=&quot;font-size: 17px&quot;&gt;B&lt;/font&gt;" style="ellipse;whiteSpace=wrap;html=1;aspect=fixed;fillColor=#dae8fc;strokeColor=#6c8ebf;sketch=1;fontColor=#000000;fontStyle=1" vertex="1" parent="1"><mxGeometry x="201" y="18529" width="47" height="47" as="geometry"/></mxCell><mxCell id="136" style="edgeStyle=none;rounded=0;sketch=1;orthogonalLoop=1;jettySize=auto;html=1;entryX=0;entryY=0;entryDx=0;entryDy=0;strokeColor=#000000;fontColor=#000000;endArrow=none;endFill=0;" edge="1" source="131" target="135" parent="1"><mxGeometry relative="1" as="geometry"><mxPoint x="136.2316058228929" y="18502.80928152274" as="sourcePoint"/><mxPoint x="222.5" y="18610" as="targetPoint"/></mxGeometry></mxCell><mxCell id="137" value="&lt;font style=&quot;font-size: 17px&quot;&gt;E&lt;/font&gt;" style="ellipse;whiteSpace=wrap;html=1;aspect=fixed;fillColor=#dae8fc;strokeColor=#6c8ebf;sketch=1;fontColor=#000000;fontStyle=1" vertex="1" parent="1"><mxGeometry x="26" y="18523" width="47" height="47" as="geometry"/></mxCell><mxCell id="138" style="edgeStyle=none;rounded=0;sketch=1;orthogonalLoop=1;jettySize=auto;html=1;entryX=1;entryY=0;entryDx=0;entryDy=0;strokeColor=#000000;fontColor=#000000;endArrow=none;endFill=0;" edge="1" source="131" target="137" parent="1"><mxGeometry relative="1" as="geometry"><mxPoint x="118.03818437741745" y="18507.743619180197" as="sourcePoint"/><mxPoint x="100.11700935788178" y="18618.88299064212" as="targetPoint"/></mxGeometry></mxCell><mxCell id="139" value="&lt;font style=&quot;font-size: 18px&quot;&gt;2&lt;/font&gt;" style="text;html=1;align=center;verticalAlign=middle;resizable=0;points=[];autosize=1;fontSize=14;fontColor=#000000;fontStyle=1" vertex="1" parent="1"><mxGeometry x="194.5" y="18487" width="20" height="23" as="geometry"/></mxCell><mxCell id="140" value="&lt;font style=&quot;font-size: 18px&quot;&gt;4&lt;/font&gt;" style="text;html=1;align=center;verticalAlign=middle;resizable=0;points=[];autosize=1;fontSize=14;fontColor=#000000;fontStyle=1" vertex="1" parent="1"><mxGeometry x="214.5" y="18594" width="20" height="23" as="geometry"/></mxCell><mxCell id="141" value="&lt;font style=&quot;font-size: 18px&quot;&gt;6&lt;/font&gt;" style="text;html=1;align=center;verticalAlign=middle;resizable=0;points=[];autosize=1;fontSize=14;fontColor=#000000;fontStyle=1" vertex="1" parent="1"><mxGeometry x="127" y="18638" width="20" height="23" as="geometry"/></mxCell><mxCell id="142" value="&lt;font style=&quot;font-size: 18px&quot;&gt;8&lt;/font&gt;" style="text;html=1;align=center;verticalAlign=middle;resizable=0;points=[];autosize=1;fontSize=14;fontColor=#000000;fontStyle=1" vertex="1" parent="1"><mxGeometry x="39.5" y="18589" width="20" height="23" as="geometry"/></mxCell><mxCell id="143" value="&lt;font style=&quot;font-size: 18px&quot;&gt;10&lt;/font&gt;" style="text;html=1;align=center;verticalAlign=middle;resizable=0;points=[];autosize=1;fontSize=14;fontColor=#000000;fontStyle=1" vertex="1" parent="1"><mxGeometry x="68" y="18481" width="30" height="23" as="geometry"/></mxCell><mxCell id="144" style="edgeStyle=none;rounded=0;sketch=1;orthogonalLoop=1;jettySize=auto;html=1;entryX=0;entryY=0;entryDx=0;entryDy=0;strokeColor=#000000;fontColor=#000000;endArrow=none;endFill=0;opacity=10;textOpacity=10;" edge="1" source="152" target="147" parent="1"><mxGeometry relative="1" as="geometry"/></mxCell><mxCell id="145" style="edgeStyle=none;rounded=0;sketch=1;orthogonalLoop=1;jettySize=auto;html=1;entryX=1;entryY=0;entryDx=0;entryDy=0;strokeColor=#000000;fontColor=#000000;endArrow=none;endFill=0;opacity=10;textOpacity=10;" edge="1" source="150" target="148" parent="1"><mxGeometry relative="1" as="geometry"/></mxCell><mxCell id="146" value="&lt;font style=&quot;font-size: 17px&quot;&gt;A&lt;/font&gt;" style="ellipse;whiteSpace=wrap;html=1;aspect=fixed;fillColor=#fa6800;strokeColor=#C73500;sketch=1;fontStyle=1;fontColor=#000000;" vertex="1" parent="1"><mxGeometry x="118" y="18737" width="47" height="47" as="geometry"/></mxCell><mxCell id="147" value="&lt;font style=&quot;font-size: 17px&quot;&gt;D&lt;/font&gt;" style="ellipse;whiteSpace=wrap;html=1;aspect=fixed;fillColor=#dae8fc;strokeColor=#6c8ebf;sketch=1;fontColor=#000000;fontStyle=1;opacity=10;textOpacity=10;" vertex="1" parent="1"><mxGeometry x="66" y="18882" width="47" height="47" as="geometry"/></mxCell><mxCell id="148" value="&lt;font style=&quot;font-size: 17px&quot;&gt;C&lt;/font&gt;" style="ellipse;whiteSpace=wrap;html=1;aspect=fixed;fillColor=#dae8fc;strokeColor=#6c8ebf;sketch=1;fontColor=#000000;fontStyle=1;opacity=10;textOpacity=10;" vertex="1" parent="1"><mxGeometry x="155" y="18882" width="47" height="47" as="geometry"/></mxCell><mxCell id="149" style="edgeStyle=none;rounded=0;sketch=1;orthogonalLoop=1;jettySize=auto;html=1;entryX=0;entryY=0.5;entryDx=0;entryDy=0;strokeColor=#000000;fontColor=#000000;endArrow=none;endFill=0;exitX=1;exitY=0.5;exitDx=0;exitDy=0;opacity=10;textOpacity=10;" edge="1" source="147" target="148" parent="1"><mxGeometry relative="1" as="geometry"><mxPoint x="168.97883196168084" y="18833.413029726085" as="sourcePoint"/><mxPoint x="211.8829906421172" y="18902.882990642116" as="targetPoint"/></mxGeometry></mxCell><mxCell id="150" value="&lt;font style=&quot;font-size: 17px&quot;&gt;B&lt;/font&gt;" style="ellipse;whiteSpace=wrap;html=1;aspect=fixed;sketch=1;fontStyle=1;fontColor=#000000;fillColor=#7DDB1E;strokeColor=#3EA300;" vertex="1" parent="1"><mxGeometry x="197" y="18805" width="47" height="47" as="geometry"/></mxCell><mxCell id="151" style="edgeStyle=none;rounded=0;sketch=1;orthogonalLoop=1;jettySize=auto;html=1;entryX=0;entryY=0;entryDx=0;entryDy=0;strokeColor=#000000;fontColor=#000000;endArrow=none;endFill=0;" edge="1" source="146" target="150" parent="1"><mxGeometry relative="1" as="geometry"><mxPoint x="132.2316058228929" y="18778.80928152274" as="sourcePoint"/><mxPoint x="218.5" y="18886" as="targetPoint"/></mxGeometry></mxCell><mxCell id="152" value="&lt;font style=&quot;font-size: 17px&quot;&gt;E&lt;/font&gt;" style="ellipse;whiteSpace=wrap;html=1;aspect=fixed;sketch=1;fontStyle=1;fontColor=#000000;fillColor=#7DDB1E;strokeColor=#3EA300;" vertex="1" parent="1"><mxGeometry x="22" y="18799" width="47" height="47" as="geometry"/></mxCell><mxCell id="153" style="edgeStyle=none;rounded=0;sketch=1;orthogonalLoop=1;jettySize=auto;html=1;entryX=1;entryY=0;entryDx=0;entryDy=0;strokeColor=#000000;fontColor=#000000;endArrow=none;endFill=0;" edge="1" source="146" target="152" parent="1"><mxGeometry relative="1" as="geometry"><mxPoint x="114.03818437741745" y="18783.743619180197" as="sourcePoint"/><mxPoint x="96.11700935788178" y="18894.88299064212" as="targetPoint"/></mxGeometry></mxCell><mxCell id="154" value="&lt;font style=&quot;font-size: 18px&quot; color=&quot;#000000&quot;&gt;Representing Graph as a&amp;nbsp;&lt;/font&gt;&lt;font color=&quot;#000000&quot;&gt;&lt;span style=&quot;font-size: 18px&quot;&gt;Adjacency List&lt;/span&gt;&lt;br&gt;&lt;/font&gt;" style="text;html=1;align=center;verticalAlign=middle;resizable=0;points=[];autosize=1;" vertex="1" parent="1"><mxGeometry x="-32.04" y="18695" width="330" height="20" as="geometry"/></mxCell></root></mxGraphModel></diagram></mxfile>